<mxfile host="Electron" modified="2024-07-06T14:20:24.309Z" agent="Mozilla/5.0 (Macintosh; Intel Mac OS X 10_15_7) AppleWebKit/537.36 (KHTML, like Gecko) draw.io/24.6.4 Chrome/124.0.6367.207 Electron/30.0.6 Safari/537.36" etag="gWok_MEIU6YPMNJAPKBS" version="24.6.4" type="device">
  <diagram name="Page-1" id="uQXPQAZC4jYBxylsKgp4">
    <mxGraphModel dx="1114" dy="998" grid="1" gridSize="10" guides="1" tooltips="1" connect="1" arrows="1" fold="1" page="1" pageScale="1" pageWidth="827" pageHeight="1169" math="0" shadow="0">
      <root>
        <mxCell id="0" />
        <mxCell id="1" parent="0" />
        <mxCell id="jliX9TaiECloQyiQ7Vz3-1" value="" style="rounded=1;whiteSpace=wrap;html=1;" parent="1" vertex="1">
          <mxGeometry x="130" y="100" width="500" height="240" as="geometry" />
        </mxCell>
        <mxCell id="jliX9TaiECloQyiQ7Vz3-4" value="" style="edgeStyle=orthogonalEdgeStyle;rounded=0;orthogonalLoop=1;jettySize=auto;html=1;" parent="1" source="jliX9TaiECloQyiQ7Vz3-2" target="jliX9TaiECloQyiQ7Vz3-3" edge="1">
          <mxGeometry relative="1" as="geometry">
            <Array as="points">
              <mxPoint x="380" y="200" />
              <mxPoint x="225" y="200" />
            </Array>
          </mxGeometry>
        </mxCell>
        <mxCell id="jliX9TaiECloQyiQ7Vz3-7" value="" style="edgeStyle=orthogonalEdgeStyle;rounded=0;orthogonalLoop=1;jettySize=auto;html=1;" parent="1" source="jliX9TaiECloQyiQ7Vz3-2" target="jliX9TaiECloQyiQ7Vz3-6" edge="1">
          <mxGeometry relative="1" as="geometry" />
        </mxCell>
        <mxCell id="jliX9TaiECloQyiQ7Vz3-2" value="&lt;font style=&quot;font-size: 18px;&quot;&gt;ConfigShell&lt;/font&gt;" style="shape=module;align=left;spacingLeft=20;align=center;verticalAlign=top;whiteSpace=wrap;html=1;" parent="1" vertex="1">
          <mxGeometry x="315" y="120" width="130" height="50" as="geometry" />
        </mxCell>
        <mxCell id="jliX9TaiECloQyiQ7Vz3-3" value="&lt;font style=&quot;font-size: 14px;&quot;&gt;ConfigLinux&lt;/font&gt;" style="shape=module;align=left;spacingLeft=20;align=center;verticalAlign=top;whiteSpace=wrap;html=1;" parent="1" vertex="1">
          <mxGeometry x="160" y="270" width="130" height="50" as="geometry" />
        </mxCell>
        <mxCell id="jliX9TaiECloQyiQ7Vz3-6" value="&lt;font style=&quot;font-size: 14px;&quot;&gt;ConfigDarwin&lt;/font&gt;" style="shape=module;align=left;spacingLeft=20;align=center;verticalAlign=top;whiteSpace=wrap;html=1;" parent="1" vertex="1">
          <mxGeometry x="315" y="270" width="130" height="50" as="geometry" />
        </mxCell>
        <mxCell id="mjKk8xjQ64TR2qeay8wm-1" value="&lt;font style=&quot;font-size: 14px;&quot;&gt;PowerlineFonts&lt;/font&gt;" style="shape=module;align=left;spacingLeft=20;align=center;verticalAlign=top;whiteSpace=wrap;html=1;" vertex="1" parent="1">
          <mxGeometry x="470" y="270" width="130" height="50" as="geometry" />
        </mxCell>
        <mxCell id="mjKk8xjQ64TR2qeay8wm-2" style="edgeStyle=orthogonalEdgeStyle;rounded=0;orthogonalLoop=1;jettySize=auto;html=1;entryX=0.569;entryY=0;entryDx=0;entryDy=0;entryPerimeter=0;" edge="1" parent="1" source="jliX9TaiECloQyiQ7Vz3-2" target="mjKk8xjQ64TR2qeay8wm-1">
          <mxGeometry relative="1" as="geometry">
            <Array as="points">
              <mxPoint x="380" y="200" />
              <mxPoint x="544" y="200" />
            </Array>
          </mxGeometry>
        </mxCell>
      </root>
    </mxGraphModel>
  </diagram>
</mxfile>
